# xmcd CD database file
#
# Track frame offsets:
#	150
#	19167
#	35559
#	67395
#	76189
#	100525
#	133758
#	147274
#	184326
#	208173
#	241050
#	263946
#
# Disc length: 3747 seconds
#
# Revision: 0
# Processed by: cddbd v1.5.2PL0 Copyright (c) Steve Scherf et al.
# Submitted via: CDex 1.70beta2
#
DISCID=ae0ea10c
DTITLE=Deuter - Mystery Of Light
DYEAR=2010
DGENRE=New Age
TTITLE0=La Folie 1
TTITLE1=La Folie 2
TTITLE2=La Folie 3
TTITLE3=La Folie 4
TTITLE4=Memories Of An Angel
TTITLE5=The Sun Enters The River
TTITLE6=The Fawn Drinks The Sun
TTITLE7=Enchanted Summer Night
TTITLE8=The Heron Dreams
TTITLE9=Laughing Waters
TTITLE10=Celestial Meadows
TTITLE11=Elysian Fields
EXTD=YEAR: 2010
EXTT0=
EXTT1=
EXTT2=
EXTT3=
EXTT4=
EXTT5=
EXTT6=
EXTT7=
EXTT8=
EXTT9=
EXTT10=
EXTT11=
PLAYORDER=
